Coordinates
version=1
nRows=26
nColumns=22
inDegrees=yes

Units are S.I. units (second, meters, Newtons, ...)
If the header above contains a line with 'inDegrees', this indicates whether rotational values are in degrees (yes) or radians (no).

endheader
time	pelvis_tilt	pelvis_list	pelvis_rotation	pelvis_tx	pelvis_ty	pelvis_tz	hip_flexion_r	hip_adduction_r	hip_rotation_r	knee_angle_r	ankle_angle_r	subtalar_angle_r	hip_flexion_l	hip_adduction_l	hip_rotation_l	knee_angle_l	ankle_angle_l	subtalar_angle_l	lumbar_extension	lumbar_bending	lumbar_rotation
      2.09000000	     -1.44737514	     -2.07141297	     -0.00359919	     -0.50637841	      0.96981684	     -0.21076590	     31.53620386	      5.54850156	     -5.98219058	    -23.32881034	     -4.70317676	      0.88749510	    -13.25850635	      3.17657786	      0.10203118	    -20.61835795	     16.37244745	      2.48050572	    -13.95704923	      4.31088509	     -8.08463792
      2.10000000	     -1.39837682	     -2.39701522	     -0.04827768	     -0.49322427	      0.97038804	     -0.21089578	     31.55980959	      5.92872381	     -5.66840728	    -24.85656995	     -4.56136252	     -0.00515053	    -13.12891240	      2.81112122	      0.27515207	    -22.28835437	     14.81164233	      3.84000002	    -13.93738912	      4.85539232	     -8.01309501
      2.11000000	     -1.34310124	     -2.67624590	     -0.08490968	     -0.48006945	      0.97128285	     -0.21101563	     31.45692177	      6.26347711	     -5.39347498	    -26.20532911	     -4.18298857	     -0.77376774	    -12.84998726	      2.48527099	      0.50169788	    -24.15943901	     12.95923687	      5.30080476	    -13.91480785	      5.33809097	     -7.94092984
      2.12000000	     -1.27530093	     -2.89730747	     -0.08572124	     -0.46698010	      0.97247420	     -0.21115124	     31.21790816	      6.52742326	     -5.19188308	    -27.36038807	     -3.59369483	     -1.45627425	    -12.40487296	      2.19843973	      0.77459516	    -26.24899187	     10.86042271	      6.88829019	    -13.89888796	      5.74608603	     -7.90303740
      2.13000000	     -1.20814199	     -3.06616919	     -0.05318477	     -0.45400465	      0.97389941	     -0.21129342	     30.85545244	      6.72732835	     -5.06371449	    -28.30666079	     -2.85012930	     -2.05260270	    -11.77503035	      1.94173044	      1.07696594	    -28.54684487	      8.58406437	      8.56223768	    -13.87623136	      6.08182409	     -7.87321384
      2.14000000	     -1.14633931	     -3.15254465	      0.03787239	     -0.44122725	      0.97550470	     -0.21146755	     30.38869878	      6.82281054	     -4.99816569	    -29.06016181	     -1.99639995	     -2.56564840	    -10.95018312	      1.74123031	      1.43011877	    -31.03644893	      6.21772580	     10.25844023	    -13.84600796	      6.31004082	     -7.89680334
      2.15000000	     -1.10119449	     -3.18673566	      0.18220200	     -0.42867933	      0.97721252	     -0.21166709	     29.84262925	      6.84176416	     -5.01015625	    -29.63212174	     -1.07386564	     -3.00374509	     -9.92012257	      1.55906899	      1.78093990	    -33.70601036	      3.90799881	     11.90574288	    -13.79964727	      6.46492487	     -7.94147346
      2.16000000	     -1.07687031	     -3.20055097	      0.36821278	     -0.41637600	      0.97896814	     -0.21185249	     29.23050970	      6.82500528	     -5.08291994	    -30.02872617	     -0.12877956	     -3.38371950	     -8.69194591	      1.35482218	      2.08198802	    -36.52758056	      1.79958970	     13.46186690	    -13.73643618	      6.57585872	     -7.97255925
      2.17000000	     -1.07151409	     -3.22032381	      0.58903643	     -0.40433432	      0.98073049	     -0.21200707	     28.56725486	      6.80496456	     -5.20225728	    -30.26989972	      0.79830940	     -3.71480916	     -7.28195060	      1.09317016	      2.29961488	    -39.46585339	      0.00603312	     14.85342968	    -13.66402014	      6.67438083	     -7.98168667
      2.18000000	     -1.08060729	     -3.27476120	      0.82225017	     -0.39253294	      0.98247214	     -0.21208962	     27.85580533	      6.82476337	     -5.34264067	    -30.36454416	      1.68552200	     -4.00420737	     -5.71841306	      0.73428347	      2.38852163	    -42.46954530	     -1.39658439	     16.03968858	    -13.58949200	      6.78883520	     -7.92890506
      2.19000000	     -1.09418403	     -3.38209397	      1.04909270	     -0.38094851	      0.98418063	     -0.21205901	     27.10348557	      6.91399259	     -5.48820537	    -30.34354468	      2.51177687	     -4.25227442	     -4.03938140	      0.25134924	      2.33704061	    -45.47601378	     -2.37338027	     16.96768305	    -13.52441338	      6.93632781	     -7.78667401
      2.20000000	     -1.09293238	     -3.54112862	      1.24574502	     -0.36953849	      0.98588552	     -0.21187589	     26.29137387	      7.08985733	     -5.58953525	    -30.21227961	      3.26537819	     -4.45930740	     -2.30159741	     -0.35507318	      2.15185786	    -48.40769079	     -2.95238062	     17.59113694	    -13.48970732	      7.11267437	     -7.54299457
      2.21000000	     -1.02988456	     -3.76205397	      1.39720243	     -0.35824756	      0.98766417	     -0.21153371	     25.36923014	      7.37121148	     -5.62951060	    -29.97307849	      3.92645557	     -4.60273153	     -0.59208028	     -1.09827713	      1.83917587	    -51.19132865	     -3.16083508	     17.77352751	    -13.53832821	      7.33420055	     -7.19079091
      2.22000000	     -0.97038670	     -3.97927931	      1.48223688	     -0.34707305	      0.98940649	     -0.21103673	     24.43232828	      7.68942015	     -5.58591302	    -29.68474399	      4.54989708	     -4.74128453	      1.13665637	     -1.87920919	      1.46004009	    -53.77875501	     -3.10418294	     17.67565003	    -13.58905441	      7.52112432	     -6.71135689
      2.23000000	     -0.92345881	     -4.19268288	      1.49960588	     -0.33599862	      0.99110570	     -0.21038146	     23.49288504	      8.03797882	     -5.47305699	    -29.35394103	      5.10619133	     -4.88425252	      2.87558169	     -2.69369451	      1.02746467	    -56.13303740	     -2.86695376	     17.02243413	    -13.63118999	      7.67336145	     -6.11871477
      2.24000000	     -0.79450148	     -4.40978525	      1.44739454	     -0.32494392	      0.99294356	     -0.20959369	     22.41647061	      8.43185382	     -5.25392917	    -28.93318144	      5.61599571	     -4.97841863	      4.48107917	     -3.54183826	      0.55218598	    -58.19037954	     -2.47138735	     15.97727487	    -13.76836517	      7.81023066	     -5.43879539
      2.25000000	     -0.63905631	     -4.60849406	      1.32471206	     -0.31393235	      0.99481763	     -0.20868948	     21.28184480	      8.82807976	     -4.97901945	    -28.45979440	      6.08573379	     -5.05129762	      6.00873601	     -4.38422369	      0.05568528	    -59.94669215	     -1.98399889	     14.70596661	    -13.93519966	      7.90552508	     -4.66819784
      2.26000000	     -0.46838317	     -4.78039573	      1.14147853	     -0.30297281	      0.99670990	     -0.20769692	     20.09911680	      9.20896091	     -4.64942728	    -27.93306976	      6.51872701	     -5.10691502	      7.46331264	     -5.19669266	     -0.44150792	    -61.39368988	     -1.43401345	     13.27962079	    -14.12044292	      7.95348063	     -3.84688455
      2.27000000	     -0.29598619	     -4.92035507	      0.90662194	     -0.29205434	      0.99859258	     -0.20665151	     18.88172719	      9.55576195	     -4.28923126	    -27.35276813	      6.91791741	     -5.14448773	      8.85093525	     -5.96200615	     -0.92957809	    -62.52417082	     -0.82402066	     11.80255035	    -14.30386657	      7.95345388	     -2.99231275
      2.28000000	     -0.12858001	     -5.02923941	      0.62836275	     -0.28121504	      1.00042562	     -0.20558709	     17.65087578	      9.86351836	     -3.89807601	    -26.74099445	      7.28943360	     -5.16419508	     10.18371613	     -6.66370720	     -1.39061708	    -63.35089261	     -0.17109341	     10.36460367	    -14.48312593	      7.91256629	     -2.12351002
      2.29000000	      0.02303802	     -5.10362033	      0.31247722	     -0.27044616	      1.00217732	     -0.20452575	     16.42447495	     10.11987006	     -3.49844984	    -26.10808910	      7.64008892	     -5.16593542	     11.46939518	     -7.29117877	     -1.82640192	    -63.87659805	      0.52392075	      9.03027785	    -14.64465994	      7.82993598	     -1.25515655
      2.30000000	      0.15584706	     -5.14500675	     -0.02744595	     -0.25976634	      1.00380533	     -0.20349727	     15.22586591	     10.31755794	     -3.12243162	    -25.48642273	      7.98917610	     -5.15423353	     12.71497485	     -7.83397396	     -2.22059485	    -64.11355219	      1.26245384	      7.82450804	    -14.78736037	      7.70901459	     -0.38293861
      2.31000000	      0.26209246	     -5.15651550	     -0.39458175	     -0.24915427	      1.00529726	     -0.20250721	     14.05074829	     10.46868882	     -2.71343296	    -24.85270382	      8.32527006	     -5.13655184	     13.92592694	     -8.29485560	     -2.58772022	    -64.07034068	      2.00348091	      6.78956033	    -14.90099231	      7.56004619	      0.45745722
      2.32000000	      0.33710628	     -5.14665946	     -0.78890758	     -0.23860002	      1.00662851	     -0.20154497	     12.91092801	     10.58403894	     -2.26617403	    -24.21832930	      8.63653640	     -5.12109205	     15.10520742	     -8.68284910	     -2.93026241	    -63.75750926	      2.73384481	      5.94516074	    -14.98099690	      7.39121748	      1.26872067
      2.33000000	      0.40908395	     -5.11998835	     -1.17762701	     -0.22809755	      1.00780695	     -0.20070082	     11.79612394	     10.64897353	     -1.86361732	    -23.61734453	      8.98243295	     -5.10861168	     16.22851458	     -8.98657043	     -3.21469900	    -63.19005637	      3.46082042	      5.12108514	    -15.06178652	      7.21561996	      2.06928608
      2.34000000	      0.45567495	     -5.08667899	     -1.58289016	     -0.21761580	      1.00882150	     -0.19990207	     10.70379193	     10.69649431	     -1.40072874	    -23.00534265	      9.29254152	     -5.10152525	     17.31469550	     -9.23623637	     -3.47894947	    -62.38043146	      4.12437518	      4.49026758	    -15.11643060	      7.04142616	      2.82909333
